<?xml version="1.0" standalone="no"?>
<!DOCTYPE svg PUBLIC "-//W3C//DTD SVG 20010904//EN"
 "http://www.w3.org/TR/2001/REC-SVG-20010904/DTD/svg10.dtd">
<svg version="1.0" xmlns="http://www.w3.org/2000/svg"
 width="300.000000pt" height="100.000000pt" viewBox="0 0 300.000000 100.000000"
 preserveAspectRatio="xMidYMid meet">
<metadata>
Created by potrace 1.10, written by Peter Selinger 2001-2011
</metadata>
<g transform="translate(0.000000,100.000000) scale(0.100000,-0.100000)"
fill="#000000" stroke="none">
<path d="M114 888 c4 -62 9 -198 12 -303 5 -206 14 -261 14 -94 l0 104 20 -25
c11 -14 20 -22 20 -18 0 15 -24 58 -32 58 -7 0 -6 24 1 59 1 2 9 -3 19 -10 13
-10 12 -8 -3 10 l-20 23 33 -7 c27 -5 32 -4 32 12 0 10 3 27 6 39 4 17 -1 22
-36 33 -33 10 -40 16 -39 34 1 12 1 61 1 110 -2 73 -5 87 -18 87 -15 0 -16
-13 -10 -112z m66 -148 c13 -25 5 -40 -21 -40 -14 0 -19 7 -19 30 0 35 23 41
40 10z"/>
<path d="M293 982 c19 -21 24 -77 6 -67 -6 4 -8 13 -5 21 3 8 0 11 -10 7 -21
-8 -17 -31 6 -38 16 -5 20 -15 20 -48 l0 -42 -15 29 c-18 34 -19 39 -3 30 7
-4 8 -3 4 4 -8 14 -45 10 -54 -5 -4 -5 -16 -15 -27 -21 -17 -9 -17 -11 -3 -12
9 0 24 7 33 16 20 21 24 17 18 -23 -4 -23 -9 -30 -20 -26 -8 3 -19 0 -24 -8
-6 -9 -9 -10 -9 -2 0 7 -9 17 -21 23 -20 11 -20 10 2 -20 15 -20 30 -29 41
-27 9 3 25 -4 34 -14 9 -10 23 -19 31 -19 7 0 13 -9 13 -20 0 -11 -7 -20 -15
-20 -8 0 -15 -4 -15 -9 0 -5 7 -11 15 -15 23 -9 18 -46 -10 -68 -14 -11 -25
-26 -25 -34 0 -17 -5 -17 -31 -4 -13 7 -19 7 -19 0 0 -20 -2 -25 -12 -38 -8
-9 -7 -11 6 -6 15 6 16 -1 11 -64 -3 -42 -1 -73 5 -77 27 -16 -11 -25 -113
-26 l-112 -2 105 -8 c58 -5 122 -13 142 -19 28 -8 45 -7 70 3 22 9 63 12 123
10 293 -11 395 -12 435 -4 25 5 67 6 95 2 l50 -6 -3 -36 c-2 -20 4 -53 12 -73
l15 -36 -515 1 c-284 0 -518 -2 -521 -5 -8 -8 30 -8 1471 -7 681 0 1241 3
1244 6 3 3 -151 5 -341 5 -191 0 -347 3 -347 6 0 3 5 14 10 24 7 13 7 34 1 62
-6 24 -6 47 -1 52 4 4 84 7 177 6 92 -1 176 -1 186 -1 22 1 97 0 140 -1 62 -3
451 13 456 17 5 5 -100 6 -659 6 -333 0 -360 3 -360 35 0 7 -10 29 -21 49 -15
26 -25 33 -32 26 -8 -8 -5 -15 8 -24 10 -8 15 -19 11 -25 -4 -7 -1 -12 8 -12
19 0 22 -20 4 -21 -7 0 -4 -4 7 -9 19 -8 19 -9 -2 -11 -61 -6 -57 -26 -56 229
l2 234 41 41 c23 23 50 42 63 42 12 0 22 6 23 13 1 6 2 21 3 32 1 13 8 20 20
20 18 0 19 -9 20 -135 1 -110 -1 -135 -13 -135 -7 0 -17 -8 -21 -17 -5 -15 -4
-16 6 -5 7 6 16 12 21 12 4 0 7 -52 6 -115 0 -63 -3 -115 -6 -115 -3 0 -19 12
-36 28 -23 21 -22 17 7 -16 25 -28 37 -52 37 -72 0 -55 15 -31 27 43 6 39 13
79 16 87 2 8 2 12 0 8 -16 -28 -23 6 -22 96 2 111 9 122 42 64 10 -17 21 -27
25 -23 4 4 1 10 -5 12 -7 3 -13 19 -14 36 0 18 -3 26 -6 20 -3 -9 -10 -10 -24
-3 -22 12 -26 35 -5 27 8 -3 17 -1 20 6 3 9 7 8 15 -3 11 -16 51 -23 51 -9 0
14 38 10 43 -3 3 -8 6 -5 6 5 2 32 21 7 20 -26 0 -26 -2 -29 -9 -12 -7 18 -8
16 -12 -10 l-4 -30 -10 24 c-9 20 -12 21 -17 8 -3 -9 -2 -19 3 -22 5 -3 6 -13
3 -23 -5 -14 -3 -15 8 -4 34 31 38 16 41 -138 2 -89 7 -151 13 -153 6 -1 11
76 13 214 l2 216 25 -5 c16 -3 25 -11 25 -23 0 -22 32 -39 38 -21 2 7 9 18 15
25 17 18 18 34 1 34 -7 0 -14 -5 -14 -10 0 -6 -11 0 -25 13 -32 30 -31 35 5
103 35 66 35 66 14 63 -9 -1 -29 -22 -45 -46 -30 -44 -41 -80 -14 -44 13 17
14 15 9 -27 -5 -36 -3 -47 9 -52 9 -3 21 -16 27 -29 l11 -23 -18 22 c-10 11
-27 23 -38 25 -18 3 -20 12 -23 91 -2 68 -6 87 -17 87 -16 0 -17 -1 -19 -115
-1 -74 -2 -80 -21 -77 -25 5 -22 1 -28 40 -4 23 -1 32 9 32 8 0 15 -11 15 -27
2 -27 2 -27 6 -4 3 15 -1 29 -10 36 -12 8 -13 20 -7 53 8 46 -5 67 -19 30 -5
-13 -5 -24 0 -26 5 -2 9 -10 9 -18 0 -9 -5 -12 -10 -9 -16 10 -40 -21 -40 -50
0 -22 3 -25 20 -20 14 4 20 2 20 -9 0 -20 -17 -30 -23 -14 -4 10 -6 10 -6 0
-1 -7 -5 -10 -11 -7 -5 3 -10 1 -10 -5 0 -7 -6 -8 -18 -1 -13 7 -23 6 -30 -1
-23 -23 -13 41 11 73 l22 31 -22 18 c-14 11 -23 29 -23 45 0 20 -4 25 -17 21
-10 -3 -35 -8 -56 -10 -22 -3 -54 -18 -77 -36 -38 -30 -55 -30 -27 -1 10 11
10 13 0 7 -9 -5 -13 1 -13 18 0 16 -6 26 -15 26 -12 0 -15 -19 -16 -107 0 -60
0 -134 1 -167 1 -38 -2 -56 -9 -52 -6 4 -13 -5 -17 -21 -8 -34 -23 -55 -35
-47 -5 3 -9 -2 -9 -10 0 -20 -37 -39 -62 -33 -12 4 -18 1 -15 -6 2 -7 9 -12
15 -11 7 1 23 2 37 3 16 0 25 7 25 17 0 9 9 18 21 21 12 4 22 17 26 35 14 70
23 28 23 -111 l0 -150 -575 1 -576 1 1 156 c2 427 1 481 -15 481 -8 0 -15 -3
-15 -7 0 -5 -20 -16 -44 -26 -24 -10 -54 -30 -67 -45 -13 -15 -17 -21 -9 -14
8 6 17 12 20 12 14 0 9 -63 -8 -94 -18 -33 -20 -34 -38 -18 -18 17 -18 16 0
-5 10 -12 24 -19 32 -16 8 3 14 1 12 -3 -2 -5 18 -32 45 -59 45 -47 66 -58 30
-15 -10 11 -19 25 -19 30 -1 6 -2 14 -3 20 0 5 -10 18 -22 28 -15 14 -18 26
-13 46 3 14 11 29 17 33 5 3 7 2 4 -3 -3 -6 -2 -16 4 -24 7 -13 9 -12 9 3 0 9
5 17 10 17 6 0 10 -8 11 -17 0 -14 2 -13 9 5 5 12 12 22 14 22 3 0 6 -115 6
-255 l0 -255 -86 0 -85 0 2 172 c1 178 4 202 21 192 6 -4 5 -9 -2 -14 -10 -6
-6 -15 14 -35 14 -14 30 -24 35 -20 5 3 12 -1 14 -7 3 -7 6 4 6 25 1 20 -3 37
-8 37 -5 0 -12 8 -14 18 -3 9 -5 4 -6 -13 l-1 -29 -16 22 c-8 12 -12 27 -8 34
5 7 2 9 -8 5 -21 -8 -29 42 -24 161 l3 92 -96 -1 c-91 0 -97 -4 -38 -23 17 -6
17 -7 2 -22 -12 -13 -19 -14 -28 -5 -6 6 -16 11 -21 11 -6 0 1 -8 17 -18 29
-20 26 -38 -3 -22 -15 8 -17 6 -13 -10 6 -23 32 -26 53 -7 8 7 7 1 -3 -15 -10
-16 -15 -28 -11 -28 3 0 -3 -15 -14 -32 -13 -20 -23 -59 -26 -98 -5 -62 -5
-63 4 -15 5 28 22 76 38 107 22 45 31 54 44 47 11 -6 21 -2 34 12 16 17 16 22
4 30 -8 5 -24 8 -34 6 -11 -1 -21 3 -23 10 -6 18 42 63 67 63 18 0 20 -6 20
-73 0 -72 0 -73 -30 -84 -26 -10 -30 -9 -30 5 -1 10 -14 -10 -31 -43 -22 -45
-28 -68 -24 -93 4 -23 3 -32 -4 -27 -7 4 -11 -3 -10 -17 0 -13 3 -17 6 -10 2
6 9 10 14 6 5 -3 9 5 9 18 1 13 7 34 15 48 14 24 14 22 14 -35 0 -55 -15 -167
-18 -137 0 8 -7 12 -13 9 -22 -7 -50 13 -44 31 5 13 2 12 -9 -2 -13 -18 -15 2
-15 197 l0 217 -32 0 c-29 0 -30 -1 -15 -18z m407 -57 c0 -45 0 -45 -35 -45
-28 0 -33 3 -28 18 5 13 50 66 61 71 1 1 2 -19 2 -44z m-190 -110 c0 -8 -11
-17 -25 -21 -31 -8 -33 -21 -2 -20 l22 1 0 -190 c0 -104 4 -193 9 -196 24 -18
-11 -29 -90 -29 l-84 0 0 99 0 100 29 -10 c31 -11 32 -33 6 -72 -7 -10 -10
-27 -8 -38 8 -30 33 -4 33 35 0 17 5 38 10 46 6 10 10 11 10 3 0 -17 61 -115
67 -109 3 3 -5 23 -17 45 -20 34 -22 47 -15 98 4 32 8 85 9 118 1 33 5 67 10
75 8 13 7 13 -6 2 -14 -11 -18 -10 -27 7 -14 25 -6 46 22 59 31 15 47 14 47
-3z m-203 -335 l-1 -120 -33 0 c-39 0 -39 0 -17 125 9 57 21 95 31 103 9 6 18
12 19 12 1 0 1 -54 1 -120z m1251 -141 l62 0 0 -52 c0 -29 3 -62 6 -74 6 -23
6 -23 -116 -23 -116 0 -121 1 -115 20 3 10 -1 40 -9 65 -26 76 -25 78 47 71
34 -4 90 -7 125 -7z m-478 -31 l9 -23 0 23 c1 12 6 22 11 22 6 0 10 -25 10
-55 0 -60 -10 -70 -27 -27 l-11 27 -1 -27 c-2 -53 -21 -28 -21 27 0 57 14 72
30 33z m130 12 c0 -5 -7 -10 -15 -10 -20 0 -19 -16 1 -24 8 -3 12 -10 9 -16
-4 -6 -11 -8 -16 -5 -5 4 -9 -1 -9 -9 0 -9 7 -16 15 -16 8 0 15 -5 15 -11 0
-6 -12 -9 -26 -7 -25 3 -27 7 -28 56 -1 50 0 52 27 52 15 0 27 -4 27 -10z m70
-45 c0 -41 -4 -55 -14 -55 -11 0 -14 14 -14 55 0 40 4 55 14 55 10 0 14 -15
14 -55z m60 10 c0 -38 3 -45 20 -45 11 0 20 -4 20 -10 0 -5 -13 -10 -30 -10
-30 0 -30 1 -30 55 0 30 5 55 10 55 6 0 10 -20 10 -45z m365 -10 c0 -47 -2
-50 -27 -53 -28 -3 -28 -3 -28 53 0 56 0 56 28 53 25 -3 27 -6 27 -53z m100 0
c0 -47 -2 -50 -25 -50 -22 0 -25 5 -28 39 -4 52 3 68 30 64 20 -3 23 -9 23
-53z m105 45 c0 -5 -4 -10 -10 -10 -5 0 -10 -20 -10 -45 0 -25 -4 -45 -10 -45
-5 0 -10 20 -10 45 0 25 -4 45 -10 45 -5 0 -10 5 -10 10 0 6 14 10 30 10 17 0
30 -4 30 -10z m94 -29 c3 -22 9 -46 12 -55 7 -19 -21 -22 -30 -3 -5 10 -7 10
-12 0 -3 -7 -12 -13 -19 -13 -12 0 -8 35 11 98 8 27 32 11 38 -27z"/>
<path d="M1494 282 c29 -32 51 -42 44 -21 -2 5 -19 20 -38 31 l-35 22 29 -32z"/>
<path d="M1670 275 c0 -19 5 -35 10 -35 6 0 10 16 10 35 0 19 -4 35 -10 35 -5
0 -10 -16 -10 -35z"/>
<path d="M1770 275 c0 -19 5 -35 10 -35 6 0 10 16 10 35 0 19 -4 35 -10 35 -5
0 -10 -16 -10 -35z"/>
<path d="M853 967 c7 -46 -3 -60 -38 -51 -18 4 -26 3 -22 -3 4 -6 22 -13 40
-15 30 -3 33 -1 29 16 -3 12 -1 17 5 13 7 -5 10 7 9 33 0 26 -6 40 -15 40 -10
0 -12 -9 -8 -33z"/>
<path d="M899 948 c-1 -29 0 -64 1 -77 1 -19 -2 -22 -15 -17 -9 3 -20 6 -23 7
-4 0 2 4 13 9 19 8 19 9 -2 9 -33 1 -37 -16 -8 -35 35 -23 31 -34 -14 -34 -32
0 -40 4 -45 22 -3 13 -1 27 4 32 16 16 11 25 -12 23 -11 -1 -23 -9 -26 -19 -2
-10 -8 -16 -12 -13 -4 3 -10 -2 -14 -10 -6 -18 5 -20 21 -4 23 23 31 -2 8 -26
-18 -20 -22 -35 -20 -69 2 -25 6 -50 10 -57 5 -8 4 -10 -3 -5 -8 5 -12 -3 -12
-23 0 -21 5 -31 15 -31 8 0 18 0 22 -1 4 0 9 5 11 11 3 8 -3 10 -19 5 -17 -4
-20 -3 -10 3 10 7 10 11 1 14 -7 2 -3 11 11 23 l22 20 -8 -24 c-4 -15 -3 -21
3 -17 5 3 12 15 15 26 4 15 0 20 -15 20 -17 0 -18 2 -8 15 10 12 15 13 21 4 6
-10 11 -10 23 0 9 8 16 9 16 3 0 -5 6 -12 13 -15 8 -3 13 7 14 29 2 25 -1 34
-12 34 -8 0 -15 -7 -15 -15 0 -8 -4 -15 -10 -15 -5 0 -8 10 -6 23 2 17 10 22
32 22 29 0 29 0 32 -67 2 -44 -1 -68 -8 -68 -7 0 -8 -6 -1 -19 6 -10 9 -71 8
-134 -2 -104 3 -140 18 -125 3 3 6 76 7 162 0 86 5 156 9 156 5 0 9 -7 9 -16
0 -8 4 -13 8 -10 4 2 7 -16 6 -42 -3 -61 3 -76 22 -57 8 7 14 21 14 30 0 12
14 4 50 -27 l49 -43 1 -78 c0 -58 3 -78 12 -75 7 3 15 18 19 35 8 42 17 53 41
53 29 0 17 9 -15 12 -26 2 -27 5 -27 54 0 49 1 52 22 46 12 -3 17 -7 10 -10
-6 -2 -12 -8 -12 -13 0 -6 5 -7 12 -3 7 5 9 2 6 -8 -5 -11 -1 -14 17 -10 12 2
26 -2 30 -9 5 -7 4 -10 -1 -6 -5 3 -17 -1 -27 -8 -16 -11 -14 -12 13 -10 17 1
37 11 45 21 8 11 14 14 15 7 0 -7 6 -13 13 -13 6 0 -6 16 -27 35 -22 19 -46
35 -53 35 -21 0 -27 1 -45 11 -16 8 -18 26 -18 134 0 112 2 127 20 145 12 12
18 25 15 30 -3 5 -1 11 5 15 13 8 13 -20 -1 -48 -9 -19 -7 -18 10 3 11 14 27
33 35 42 13 15 13 17 -2 21 -12 3 -10 5 6 6 13 0 21 5 17 11 -3 5 -12 7 -20 3
-11 -4 -13 -1 -9 10 4 12 11 14 30 7 13 -5 24 -6 24 -1 0 5 -11 11 -25 14 -19
3 -29 -1 -37 -17 -6 -11 -16 -24 -22 -28 -18 -12 -47 -9 -45 5 4 30 -2 47 -16
47 -13 0 -15 -31 -15 -220 l0 -220 -33 37 c-42 49 -67 88 -67 108 0 8 -4 15
-10 15 -5 0 -10 -8 -10 -17 0 -14 -2 -15 -9 -5 -4 8 -11 13 -15 13 -20 -3 -26
1 -26 19 0 10 6 23 13 27 14 8 40 73 33 80 -2 3 -7 -4 -10 -15 -4 -11 -13 -23
-21 -26 -12 -4 -14 8 -12 68 1 41 4 74 7 74 20 -1 28 5 33 22 3 11 1 23 -5 26
-5 3 -12 -3 -15 -15 -6 -25 -23 -18 -23 10 0 10 -4 19 -10 19 -5 0 -10 -24
-11 -52z m101 -292 c0 -20 -26 -40 -35 -26 -10 16 2 40 20 40 8 0 15 -6 15
-14z"/>
<path d="M980 979 c0 -12 7 -27 17 -34 17 -13 11 -51 -7 -40 -18 11 -10 -4 16
-30 20 -20 29 -23 44 -15 11 6 17 16 14 25 -4 9 -1 21 5 29 9 11 6 12 -14 8
-20 -3 -25 0 -25 14 1 22 19 48 40 57 8 3 -1 6 -22 6 -20 1 -39 -4 -41 -11 -4
-10 -6 -10 -6 0 -2 21 -21 13 -21 -9z"/>
<path d="M1289 938 c0 -35 0 -112 1 -172 1 -81 -2 -111 -12 -117 -10 -7 -10
-9 0 -9 9 0 12 -30 12 -117 0 -80 3 -113 10 -103 5 8 10 39 10 68 0 39 4 52
15 52 10 0 15 10 15 30 0 20 5 30 15 30 8 0 20 9 27 20 15 24 38 26 38 4 0 -8
4 -13 9 -10 4 3 6 -6 3 -19 -3 -17 0 -25 10 -25 19 0 11 74 -10 93 -22 19 -84
26 -89 10 -3 -8 7 -11 34 -8 21 2 30 2 21 -1 -10 -3 -18 -12 -18 -19 0 -14
-37 -45 -52 -45 -5 0 -3 9 4 20 11 17 11 22 0 29 -7 4 -13 19 -14 32 -3 41 3
115 8 103 3 -7 14 -10 24 -7 12 3 20 0 20 -6 0 -7 4 -10 9 -7 5 3 18 -18 31
-47 21 -49 23 -51 33 -29 8 18 6 27 -13 47 -13 14 -21 32 -18 43 3 11 1 27 -5
37 -7 13 -6 16 2 11 6 -4 11 -1 11 9 0 19 -24 30 -47 21 -12 -5 -14 -9 -5 -18
14 -14 16 -52 2 -43 -5 3 -6 13 -3 23 7 16 5 16 -20 -1 l-27 -17 0 55 c0 30 3
54 8 53 4 0 15 2 25 6 19 9 24 50 5 44 -15 -5 -49 22 -42 34 3 4 -2 8 -10 8
-13 0 -16 -13 -17 -62z"/>
<path d="M1489 993 c0 -5 -1 -33 -2 -63 -2 -48 -5 -55 -23 -58 -23 -3 -36 20
-38 67 -1 33 -20 37 -34 7 -9 -20 -7 -29 9 -50 12 -15 25 -42 30 -61 8 -28 12
-33 23 -23 7 7 11 20 9 29 -3 9 2 16 12 16 10 0 15 -8 14 -21 0 -12 -1 -64 0
-116 1 -108 19 -115 25 -9 3 35 5 67 5 72 1 10 31 9 31 -2 0 -6 9 -9 20 -8 24
2 23 -1 8 34 -13 33 -12 28 -21 76 -5 22 -14 37 -22 37 -9 0 -12 -6 -9 -15 4
-8 1 -15 -6 -15 -7 0 -11 13 -10 33 3 55 0 77 -10 77 -5 0 -10 -3 -11 -7z m69
-175 c19 -19 14 -25 -18 -24 -16 1 -30 6 -30 12 0 25 28 32 48 12z"/>
<path d="M1573 976 c34 -31 52 -34 37 -6 -6 11 -15 18 -21 14 -5 -3 -18 0 -27
6 -9 7 -4 1 11 -14z"/>
<path d="M1680 952 c-3 -260 7 -566 19 -570 8 -3 11 57 11 190 0 187 1 194 23
222 29 36 63 31 53 -8 -4 -17 -1 -26 10 -30 21 -8 24 -8 24 4 0 6 -8 10 -17
10 -15 0 -16 2 -3 10 8 5 28 10 44 10 28 0 29 0 11 20 -14 15 -15 20 -4 21 19
1 -30 17 -57 18 -12 1 -33 -10 -48 -24 -15 -14 -29 -25 -31 -25 -3 0 -4 41 -4
90 0 52 5 88 10 84 5 -3 9 1 9 8 0 8 -11 15 -25 16 -23 2 -25 -1 -25 -46z"/>
<path d="M1750 987 c0 -24 28 -47 57 -47 21 0 24 2 13 15 -7 8 -17 15 -23 15
-6 0 -19 7 -29 17 -16 14 -18 14 -18 0z"/>
<path d="M2470 971 c0 -16 -4 -41 -9 -54 -6 -14 -7 -27 -5 -30 3 -3 7 -32 8
-65 2 -60 2 -61 -23 -56 -16 3 -34 -1 -46 -11 -11 -9 -15 -14 -8 -11 7 4 10
-1 7 -11 -2 -10 7 -31 21 -48 18 -22 25 -25 25 -13 0 9 -6 18 -12 21 -10 3
-10 7 1 20 31 38 36 20 39 -150 2 -92 6 -171 9 -176 13 -21 20 19 15 82 -5 76
4 92 40 67 12 -9 29 -16 38 -16 8 0 0 9 -18 20 -21 13 -32 26 -28 35 3 8 0 17
-6 21 -7 5 -8 2 -3 -7 5 -10 5 -11 -2 -4 -15 14 -4 75 13 75 8 0 14 -10 14
-22 0 -16 3 -19 9 -10 5 9 13 -1 25 -32 10 -26 21 -46 26 -46 10 0 8 20 -3 38
-5 6 -5 12 -2 12 4 0 -2 12 -13 28 -18 25 -21 56 -8 69 10 10 26 -9 26 -31 0
-29 6 -35 30 -29 19 5 19 6 -1 32 -17 21 -18 27 -6 29 9 2 18 10 21 18 5 12 2
12 -18 -1 -19 -13 -25 -13 -35 -2 -6 8 -8 17 -4 20 9 10 -10 8 -25 -2 -7 -4
-14 -21 -14 -37 -1 -25 -5 -29 -29 -30 -31 -1 -38 10 -15 23 7 4 18 18 25 31
11 20 9 22 -14 22 -14 0 -25 5 -25 10 0 6 19 10 43 11 35 0 38 2 20 9 -13 5
-23 14 -23 20 0 18 28 10 47 -13 10 -13 26 -24 36 -24 15 0 16 7 11 49 -5 33
-3 48 5 48 6 0 11 12 10 28 l-1 27 -10 -28 c-15 -41 -44 -32 -41 13 1 35 1 35
-12 10 -12 -21 -14 -23 -20 -8 -4 9 -4 22 -1 27 9 14 -20 81 -35 81 -7 0 -8
-7 -4 -17 4 -10 10 -29 13 -43 l5 -25 -22 27 c-11 14 -21 33 -21 42 0 9 -4 16
-10 16 -5 0 -10 -13 -10 -29z m37 -50 c-3 -12 1 -22 10 -25 11 -5 13 -14 8
-38 -7 -32 -7 -32 11 -17 26 22 41 14 64 -32 24 -47 12 -51 -24 -8 -24 28 -28
30 -44 17 -40 -35 -42 -33 -41 46 1 44 5 76 11 76 6 0 8 -9 5 -19z"/>
<path d="M2560 983 c0 -26 18 -39 33 -24 6 6 23 11 39 11 l28 0 2 -167 c3
-150 5 -165 17 -143 8 14 13 50 13 87 -1 65 7 74 47 49 10 -7 12 -5 7 5 -4 8
-1 6 7 -4 9 -11 25 -17 38 -15 33 5 35 26 3 30 -39 4 -44 28 -5 28 17 0 34 7
39 16 8 14 10 14 22 -1 11 -13 11 -21 2 -36 -7 -10 -12 -26 -12 -34 0 -10 -5
-13 -12 -9 -7 4 -8 3 -4 -4 4 -7 2 -12 -3 -12 -6 0 -11 -9 -11 -21 0 -23 -25
-53 -38 -45 -4 2 -8 -3 -9 -12 -1 -27 -14 -96 -20 -107 -3 -5 0 -5 7 2 10 9
16 9 26 -2 8 -7 14 -18 14 -24 0 -5 16 -15 35 -22 34 -13 35 -14 35 -68 0 -81
9 -57 15 38 4 69 1 90 -15 124 -23 47 -24 50 -10 42 14 -9 12 7 -3 30 -19 28
-19 65 -1 65 30 0 43 59 34 149 -5 46 -12 86 -15 90 -4 3 -13 -3 -21 -13 -12
-18 -14 -18 -14 -3 0 15 -2 16 -14 5 -8 -7 -10 -14 -5 -16 17 -7 9 -21 -11
-19 -11 1 -20 6 -20 13 0 6 -7 18 -17 25 -15 13 -15 11 1 -18 9 -18 21 -33 26
-33 6 0 10 -7 10 -15 0 -18 3 -18 -60 -4 -27 6 -50 15 -50 21 0 6 9 8 20 4 57
-17 61 -16 23 9 -24 14 -43 30 -43 36 0 13 -28 11 -32 -3 -3 -8 -9 -8 -23 -1
-14 8 -22 7 -33 -3 -12 -13 -16 -12 -28 3 -13 17 -13 17 -14 -4z m296 -71 c-4
-3 -11 -1 -17 5 -7 7 -6 19 3 39 l13 29 3 -34 c2 -18 1 -36 -2 -39z m-15 -25
c-7 -7 -15 -6 -26 3 -12 10 -15 10 -15 -4 0 -16 -23 -18 -47 -3 -8 5 -13 3
-13 -7 0 -8 -6 -17 -12 -20 -7 -4 -3 -4 9 -2 20 3 21 1 12 -15 -12 -23 -17
-24 -41 -2 -22 20 -25 73 -4 73 8 0 17 -4 20 -9 6 -9 82 2 93 13 3 3 12 1 20
-6 9 -7 11 -14 4 -21z m-9 -219 c-18 -18 -15 -52 8 -81 11 -14 20 -33 20 -42
0 -13 -11 -8 -43 21 -43 39 -43 39 -29 74 20 49 33 63 46 50 7 -7 6 -14 -2
-22z"/>
<path d="M189 978 c-19 -6 -25 -14 -22 -26 4 -17 43 -26 43 -10 0 4 -7 8 -15
8 -22 0 -18 15 4 17 11 1 22 -5 25 -13 4 -11 11 -12 23 -5 10 5 22 9 26 9 5 0
11 3 14 6 10 10 -17 7 -38 -4 -15 -8 -19 -7 -19 4 0 21 -11 25 -41 14z"/>
<path d="M770 971 c0 -10 15 -24 36 -33 34 -15 35 -15 20 1 -9 10 -16 22 -16
28 0 6 -9 13 -20 16 -14 4 -20 0 -20 -12z"/>
<path d="M2432 918 c0 -32 3 -58 7 -58 10 0 11 81 1 99 -6 11 -9 -2 -8 -41z"/>
<path d="M1765 921 c-35 -7 -37 -25 -3 -28 22 -3 22 -2 3 7 -18 9 -18 10 5 7
14 -3 31 -6 39 -8 7 -2 16 3 19 11 2 8 1 12 -3 8 -5 -4 -13 -4 -19 0 -6 5 -24
6 -41 3z"/>
<path d="M2042 895 c-7 -14 -12 -33 -12 -42 0 -11 -6 -14 -24 -9 -25 6 -76
-11 -76 -24 0 -15 28 -31 35 -20 3 5 19 10 34 10 15 0 33 6 40 13 10 10 11 8
5 -8 -4 -11 -4 -17 1 -13 8 8 20 118 12 118 -2 0 -9 -11 -15 -25z"/>
<path d="M1223 899 c-28 -10 -29 -18 -5 -35 16 -12 15 -13 -8 -14 -14 -1 -19
-4 -12 -7 6 -2 12 -17 12 -31 0 -28 -44 -132 -56 -132 -3 0 -4 7 -1 14 4 10 1
13 -9 9 -18 -7 -18 -20 0 -39 20 -19 56 -18 56 2 0 9 -5 12 -12 8 -8 -5 -9 -2
-5 10 4 10 7 20 7 22 0 2 5 4 10 4 5 0 9 -3 8 -7 0 -5 2 -16 6 -25 13 -30 35
-20 42 17 8 45 -2 57 -16 20 -14 -36 -25 -25 -13 12 6 15 6 41 2 57 -4 15 -5
25 -2 22 8 -7 43 49 43 68 0 22 -23 34 -47 25z"/>
<path d="M1610 896 c0 -11 7 -28 17 -38 9 -10 11 -18 5 -18 -6 0 -14 5 -17 10
-3 6 -11 10 -16 10 -14 0 10 -24 40 -39 36 -20 36 -6 2 46 -21 32 -31 42 -31
29z"/>
<path d="M572 870 c-24 -32 -27 -40 -12 -40 10 0 44 59 38 66 -3 2 -14 -10
-26 -26z"/>
<path d="M1937 746 c-21 -32 -18 -41 7 -23 10 7 17 22 15 32 -4 17 -6 15 -22
-9z"/>
<path d="M1991 756 c-6 -7 -8 -16 -4 -19 3 -4 0 -13 -6 -21 -8 -10 -9 -16 -2
-21 6 -3 16 6 23 20 6 14 17 24 24 21 10 -4 24 13 24 28 0 9 -50 3 -59 -8z"/>
<path d="M2727 758 c-28 -10 -28 -10 -8 -27 12 -10 17 -22 13 -27 -4 -4 1 -2
10 5 9 7 23 10 30 6 7 -4 3 2 -10 12 -27 22 -21 33 16 27 21 -3 23 -2 12 6
-18 12 -26 12 -63 -2z"/>
<path d="M1758 732 c-25 -5 -23 -42 1 -42 11 0 29 -14 41 -30 12 -17 26 -28
31 -25 16 11 10 54 -10 65 -11 5 -25 16 -33 23 -7 7 -21 11 -30 9z"/>
<path d="M2385 690 c4 -6 1 -18 -6 -26 -10 -12 -6 -21 21 -49 19 -19 31 -37
28 -40 -6 -6 -50 42 -80 85 -14 20 -17 22 -17 7 -1 -25 106 -139 113 -121 3 8
2 14 -3 14 -5 0 -7 11 -6 25 2 14 0 23 -4 20 -5 -2 -18 6 -30 19 -15 15 -19
26 -12 31 14 8 14 45 0 45 -5 0 -7 -5 -4 -10z"/>
<path d="M822 665 c-2 -24 23 -42 33 -25 4 6 1 10 -4 10 -6 0 -11 6 -11 14 0
25 -16 26 -18 1z"/>
<path d="M1932 678 c-18 -18 -14 -35 11 -42 41 -11 49 -8 37 14 -6 11 -7 20
-3 20 9 0 -18 20 -27 20 -4 0 -11 -5 -18 -12z"/>
<path d="M218 654 c-4 -17 -11 -21 -32 -17 -32 6 -35 -12 -4 -21 28 -7 51 14
46 40 -3 17 -4 17 -10 -2z"/>
<path d="M2001 662 c-9 -3 43 -52 54 -52 1 0 0 13 -3 28 -3 27 -20 34 -51 24z"/>
<path d="M2122 640 c7 -10 14 -17 17 -15 2 3 20 -5 40 -16 35 -20 35 -20 11 0
-14 11 -33 27 -42 35 -25 23 -41 20 -26 -4z"/>
<path d="M549 637 c16 -20 72 -49 79 -42 7 7 -12 26 -29 29 -8 1 -25 8 -39 16
-23 12 -24 12 -11 -3z"/>
<path d="M790 609 c-14 -11 -20 -18 -13 -15 6 4 14 -2 16 -11 4 -17 5 -17 6 0
2 25 28 21 38 -7 7 -20 10 -22 21 -10 7 8 8 14 2 14 -5 0 -10 5 -10 11 0 5 5
7 10 4 6 -3 10 4 10 16 0 22 0 22 -14 3 -14 -18 -16 -18 -28 -2 -12 16 -15 16
-38 -3z"/>
<path d="M1980 602 c-8 -9 -14 -23 -12 -30 2 -7 -6 -16 -17 -19 -12 -3 -21
-12 -21 -20 0 -12 7 -14 28 -9 15 4 35 7 44 7 16 0 16 2 -2 22 -11 11 -20 26
-20 31 0 6 7 3 15 -8 8 -11 21 -16 30 -12 13 5 13 9 3 26 -17 27 -30 30 -48
12z"/>
<path d="M640 592 c0 -11 7 -23 16 -26 11 -4 15 0 12 16 -4 28 -28 36 -28 10z"/>
<path d="M1373 593 c-21 -8 -15 -20 12 -25 14 -3 25 -1 25 3 0 5 -5 9 -11 9
-5 0 -7 5 -4 10 7 11 -2 12 -22 3z"/>
<path d="M1441 520 c-13 -11 -32 -20 -42 -20 -12 0 -16 -5 -13 -15 4 -8 1 -15
-7 -15 -7 0 -10 -2 -7 -5 8 -8 95 44 102 60 7 20 -4 18 -33 -5z"/>
<path d="M1490 461 c0 -47 4 -81 10 -81 6 0 10 31 10 74 0 41 -4 78 -10 81 -6
4 -10 -23 -10 -74z"/>
<path d="M842 478 c8 -41 38 -87 38 -61 0 7 -4 14 -9 17 -5 4 -12 24 -16 46
-4 22 -10 40 -15 40 -4 0 -4 -19 2 -42z"/>
<path d="M1988 490 c6 -8 12 -18 12 -23 0 -4 -6 -5 -12 -1 -7 4 -10 4 -6 0 3
-4 8 -6 11 -4 3 2 14 -6 26 -16 12 -11 21 -15 21 -9 0 5 -15 22 -32 39 -18 16
-27 22 -20 14z"/>
<path d="M2790 448 c1 -40 2 -42 15 -24 18 23 19 36 4 36 -5 0 -8 4 -4 9 3 5
1 12 -5 16 -6 4 -10 -10 -10 -37z"/>
<path d="M2607 448 c-9 -18 -13 -37 -10 -42 4 -5 12 8 20 29 17 48 11 56 -10
13z"/>
<path d="M2664 466 c-8 -22 0 -81 11 -81 6 0 11 21 13 48 3 45 -12 65 -24 33z"/>
<path d="M770 460 c0 -6 -4 -8 -10 -5 -6 4 -10 -5 -10 -19 0 -34 8 -33 21 1
l10 28 34 -40 c39 -45 46 -40 13 8 -23 32 -58 48 -58 27z"/>
<path d="M2384 446 c-3 -8 -4 -23 -1 -33 3 -13 5 -11 7 7 1 23 2 24 10 5 8
-17 8 -16 7 8 -1 29 -14 36 -23 13z"/>
<path d="M2792 183 c37 -2 100 -2 140 0 40 1 10 3 -67 3 -77 0 -110 -1 -73 -3z"/>
<path d="M1250 144 c-11 -12 -10 -18 4 -32 14 -14 36 -17 126 -17 92 0 110 -2
110 -15 0 -13 2 -13 9 -1 8 12 31 14 108 13 104 -3 131 4 107 26 -8 7 -14 8
-14 3 0 -6 -36 -10 -85 -10 -77 1 -85 3 -85 20 0 22 -16 25 -36 5 -11 -11 -11
-16 -1 -19 6 -3 -3 -6 -22 -6 -33 -1 -34 0 -15 14 18 14 18 14 -3 8 -13 -3
-23 -9 -23 -14 0 -12 -83 -7 -92 6 -5 6 -8 6 -8 -1 0 -7 -15 -12 -35 -12 -27
0 -35 4 -35 18 0 15 9 17 67 17 38 0 62 -2 55 -5 -6 -2 -12 -8 -12 -14 0 -6 9
-3 19 6 18 17 19 17 24 -1 4 -15 5 -16 6 -1 1 11 12 18 34 21 17 2 -18 5 -79
5 -90 2 -114 -1 -124 -14z"/>
<path d="M1590 145 c0 -8 -5 -15 -12 -15 -6 0 -8 -3 -4 -7 4 -5 14 1 22 12 12
16 17 17 23 7 7 -11 9 -11 14 2 5 12 0 16 -18 16 -16 0 -25 -6 -25 -15z"/>
<path d="M231 109 c0 -24 7 -60 15 -79 l14 -35 -6 35 c-3 19 -8 53 -10 75 -7
55 -14 57 -13 4z"/>
<path d="M306 110 c-7 -45 2 -99 14 -80 11 17 11 108 1 114 -5 3 -11 -12 -15
-34z"/>
<path d="M714 126 c-3 -14 -1 -33 5 -43 8 -15 10 -10 11 25 0 47 -6 55 -16 18z"/>
</g>
</svg>
