<?xml version="1.0" standalone="no"?>
<!DOCTYPE svg PUBLIC "-//W3C//DTD SVG 20010904//EN"
 "http://www.w3.org/TR/2001/REC-SVG-20010904/DTD/svg10.dtd">
<svg version="1.0" xmlns="http://www.w3.org/2000/svg"
 width="300.000000pt" height="300.000000pt" viewBox="0 0 300.000000 300.000000"
 preserveAspectRatio="xMidYMid meet">
<metadata>
Created by potrace 1.10, written by Peter Selinger 2001-2011
</metadata>
<g transform="translate(0.000000,300.000000) scale(0.100000,-0.100000)"
fill="#000000" stroke="none">
<path d="M1419 2092 c-97 -86 -469 -405 -482 -414 -8 -5 27 -80 49 -107 2 -2
56 17 121 42 65 25 182 70 260 100 l143 55 37 -18 c46 -22 163 -76 218 -100
22 -10 83 -38 137 -63 l96 -46 25 67 c14 37 28 74 31 83 5 11 -38 51 -161 149
-92 74 -170 137 -173 140 -3 3 -39 33 -80 65 -41 33 -88 72 -105 87 -16 15
-32 28 -35 28 -3 -1 -39 -31 -81 -68z m250 -122 c83 -67 151 -125 151 -129 0
-4 -11 -18 -25 -31 -14 -13 -25 -34 -25 -46 0 -33 -10 -54 -27 -54 -19 0 -183
76 -183 85 0 4 11 16 24 26 22 17 24 25 22 96 -1 43 -5 83 -9 90 -4 6 -32 19
-62 28 -51 17 -56 17 -81 0 -14 -9 -29 -14 -32 -10 -10 10 68 77 83 72 7 -3
81 -60 164 -127z m-159 16 c4 -26 6 -27 19 -13 7 10 19 17 27 17 24 0 26 -21
4 -45 l-22 -23 23 -31 c17 -24 20 -34 11 -43 -9 -9 -16 -7 -32 7 -20 18 -20
18 -20 -7 0 -13 -3 -28 -6 -31 -10 -10 -44 12 -44 28 0 19 -14 19 -30 0 -12
-14 -15 -14 -32 1 -18 17 -18 18 4 41 21 23 22 25 5 34 -9 6 -17 19 -17 30 0
23 27 36 43 20 19 -19 27 -13 27 20 0 41 33 37 40 -5z m-145 -63 c0 -63 2 -70
33 -102 17 -18 32 -34 32 -36 0 -4 -127 -55 -162 -65 -23 -7 -31 -4 -48 17
-11 14 -20 34 -20 44 0 10 -5 21 -11 24 -20 13 -3 36 85 110 50 41 90 75 91
75 0 0 1 -30 0 -67z m535 -128 c0 -9 9 -15 24 -15 36 0 39 -14 11 -40 l-25
-24 20 -21 c19 -20 19 -23 4 -36 -14 -11 -18 -11 -29 4 -11 15 -13 16 -19 2
-8 -22 -36 -18 -36 5 0 16 -5 19 -24 14 -31 -8 -43 12 -21 36 15 16 16 22 5
35 -11 13 -10 19 3 33 16 15 18 15 32 -3 14 -20 15 -20 21 3 7 25 34 30 34 7z
m-738 -28 c-2 -18 3 -30 17 -39 31 -19 27 -42 -6 -33 -23 5 -25 4 -14 -8 15
-19 -4 -34 -23 -18 -10 8 -17 7 -26 -4 -17 -20 -40 -2 -33 25 3 12 -1 22 -11
26 -9 3 -16 15 -16 25 0 12 5 16 15 13 10 -4 15 0 15 15 0 22 24 29 36 10 5
-8 10 -6 16 5 14 25 34 14 30 -17z m838 -88 c0 -38 -16 -69 -35 -69 -19 0 -19
10 1 38 9 13 14 32 11 43 -3 12 0 19 9 19 9 0 14 -11 14 -31z m-960 -8 c16
-31 12 -41 -15 -41 -30 0 -43 24 -25 45 17 20 27 19 40 -4z"/>
<path d="M1238 1613 c-54 -20 -98 -41 -98 -48 0 -14 103 -22 395 -30 110 -3
228 -8 263 -11 58 -4 62 -3 62 16 0 16 -20 31 -92 65 l-92 45 -170 -1 c-170 0
-171 -1 -268 -36z m324 -18 c-4 -32 -7 -35 -38 -35 -19 0 -34 3 -34 8 0 4 -3
17 -6 29 -6 22 6 30 56 32 24 1 26 -2 22 -34z m-214 -10 c-18 -41 -68 -29 -68
16 0 5 18 9 40 9 39 0 39 -1 28 -25z m389 14 c5 -5 8 -21 5 -35 -3 -20 -10
-24 -37 -24 -34 0 -45 13 -45 51 0 15 7 19 33 19 18 0 38 -5 44 -11z"/>
<path d="M891 1530 c-19 -30 -26 -52 -20 -56 6 -3 11 -4 13 -3 1 2 13 20 27
39 38 53 40 57 24 63 -9 4 -24 -11 -44 -43z"/>
<path d="M2046 1552 c-4 -6 8 -32 26 -57 18 -25 34 -42 36 -36 5 15 -55 105
-62 93z"/>
<path d="M952 1494 c-19 -25 -31 -48 -27 -52 8 -8 74 68 75 86 0 22 -15 12
-48 -34z"/>
<path d="M1990 1501 c0 -15 78 -96 85 -89 4 4 -10 27 -30 52 -35 44 -55 57
-55 37z"/>
<path d="M1084 1339 c-4 -7 -9 -64 -12 -126 -4 -109 -3 -113 17 -113 20 0 21
5 21 89 0 50 4 92 9 95 9 6 100 -129 114 -166 4 -12 17 -18 39 -18 l33 0 -3
118 c-4 118 -9 139 -35 129 -11 -4 -12 -20 -5 -83 5 -44 7 -85 6 -92 -2 -7
-32 29 -68 80 -64 91 -97 116 -116 87z"/>
<path d="M1386 1342 l-49 -3 7 -111 c3 -61 9 -115 12 -119 3 -5 52 -9 110 -9
97 0 104 1 104 20 0 18 -7 20 -84 20 l-84 0 1 37 c2 36 4 38 42 45 22 4 57 7
78 7 20 1 37 6 37 12 0 8 -21 10 -69 7 -73 -5 -84 -3 -93 23 -12 31 8 42 88
47 69 4 75 6 58 19 -11 8 -37 13 -64 11 -25 -2 -67 -4 -94 -6z"/>
<path d="M1697 1334 c-4 -4 -7 -58 -7 -121 l0 -114 112 3 c98 3 113 5 116 21
3 15 -6 17 -86 17 l-90 0 -6 63 c-3 34 -7 77 -9 96 -2 33 -16 49 -30 35z"/>
<path d="M1612 1215 c3 -98 5 -115 19 -115 15 0 17 15 16 115 -1 105 -2 115
-19 115 -18 0 -19 -9 -16 -115z"/>
<path d="M464 975 c-4 -8 -3 -35 0 -60 7 -45 8 -45 47 -45 l40 0 -3 58 -3 57
-38 3 c-27 2 -39 -1 -43 -13z m69 -24 c2 -10 2 -31 0 -45 -10 -49 -53 -24 -53
31 0 28 4 33 24 33 15 0 26 -7 29 -19z"/>
<path d="M672 934 c3 -59 3 -59 36 -62 44 -4 62 12 62 59 0 44 -2 46 -59 55
l-42 7 3 -59z m65 28 c6 -4 13 -20 15 -36 2 -25 -1 -30 -25 -37 -24 -7 -29 -4
-38 18 -18 47 10 79 48 55z"/>
<path d="M803 983 c-20 -4 -23 -11 -23 -47 0 -53 17 -70 60 -61 39 9 39 25 0
25 -20 0 -30 5 -30 15 0 10 10 15 30 15 17 0 30 5 30 11 0 7 -9 9 -21 6 -11
-3 -28 -3 -36 0 -20 8 3 22 37 24 23 0 23 1 5 9 -11 5 -22 8 -25 8 -3 0 -15
-3 -27 -5z"/>
<path d="M913 983 c-16 -3 -23 -11 -23 -29 0 -21 4 -24 41 -24 33 0 40 -3 37
-17 -3 -19 -48 -32 -48 -14 0 6 -9 11 -20 11 -11 0 -20 -4 -20 -10 0 -14 35
-30 68 -30 31 0 42 14 42 56 0 21 -4 24 -41 24 -26 0 -38 4 -33 11 4 6 20 8
40 4 21 -3 34 -2 34 5 0 5 -6 10 -14 10 -8 0 -20 2 -28 4 -7 2 -23 1 -35 -1z"/>
<path d="M1133 983 c-24 -5 -27 -18 -17 -71 7 -35 22 -44 64 -35 41 8 38 23
-5 23 -24 0 -35 5 -35 15 0 10 10 15 30 15 17 0 30 5 30 11 0 7 -11 8 -31 4
-24 -6 -30 -4 -27 6 3 8 18 17 34 20 16 4 24 7 17 8 -6 0 -17 3 -25 5 -7 2
-23 1 -35 -1z"/>
<path d="M1545 978 c-3 -7 -3 -26 -1 -43 2 -16 4 -38 5 -47 1 -14 10 -18 41
-18 l40 0 0 60 0 60 -40 0 c-23 0 -43 -5 -45 -12z m69 -24 c11 -28 6 -65 -9
-70 -24 -10 -45 15 -45 52 0 29 3 34 24 34 13 0 27 -7 30 -16z"/>
<path d="M1647 983 c-4 -3 -7 -26 -7 -49 0 -47 17 -64 65 -64 29 0 32 6 39 68
4 33 2 42 -10 42 -11 0 -13 -6 -9 -20 11 -36 -4 -62 -33 -58 -24 3 -27 8 -28
40 0 39 -6 53 -17 41z"/>
<path d="M1783 980 c-34 -14 -31 -50 5 -50 34 0 57 -14 48 -29 -9 -14 -43 -14
-51 -1 -9 15 -25 12 -25 -5 0 -8 14 -17 35 -21 51 -9 67 0 63 38 -3 30 -7 34
-43 39 -30 4 -36 7 -22 13 9 5 28 5 42 2 14 -4 25 -2 25 4 0 5 -6 10 -14 10
-8 0 -20 2 -28 4 -7 3 -23 1 -35 -4z"/>
<path d="M1893 983 c-24 -5 -30 -32 -17 -80 7 -27 20 -32 62 -26 43 7 41 23
-3 23 -24 0 -35 5 -35 15 0 10 10 15 30 15 17 0 30 5 30 11 0 7 -9 9 -21 6
-11 -3 -28 -3 -36 0 -20 8 3 22 37 24 23 0 23 1 5 9 -11 5 -22 8 -25 8 -3 0
-15 -3 -27 -5z"/>
<path d="M2163 983 c-26 -5 -31 -41 -13 -88 9 -24 14 -26 43 -20 48 11 57 25
14 25 -26 0 -37 4 -37 15 0 10 10 15 30 15 17 0 30 4 30 9 0 6 -11 9 -24 8
-32 -3 -35 16 -4 23 21 5 21 7 5 13 -10 4 -19 6 -20 6 -1 -1 -12 -4 -24 -6z"/>
<path d="M2244 975 c3 -9 7 -35 7 -58 1 -23 4 -32 6 -19 6 30 19 28 31 -5 9
-25 11 -23 11 25 1 28 2 55 4 60 1 4 -13 8 -32 10 -28 3 -33 1 -27 -13z"/>
<path d="M2333 984 c-8 -4 -13 -26 -13 -60 l0 -55 43 3 c36 3 42 6 42 26 0 12
-4 22 -10 22 -5 0 -10 -6 -10 -12 0 -7 -9 -13 -20 -13 -15 0 -21 8 -23 33 -3
28 0 32 20 32 27 0 64 19 38 20 -8 0 -24 2 -35 5 -11 2 -26 2 -32 -1z"/>
<path d="M2420 936 c0 -47 3 -54 23 -60 62 -17 77 -4 77 65 0 50 -18 51 -22 2
-3 -33 -7 -38 -30 -41 -27 -3 -28 -2 -28 42 0 25 -4 46 -10 46 -5 0 -10 -24
-10 -54z"/>
<path d="M2560 983 c-23 -9 -26 -18 -22 -62 4 -43 19 -55 58 -45 34 9 30 24
-6 24 -20 0 -30 5 -30 15 0 10 10 15 30 15 17 0 30 4 30 9 0 6 -11 9 -24 8
-36 -3 -36 17 -1 24 17 4 25 7 18 8 -6 0 -17 3 -25 5 -7 3 -20 2 -28 -1z"/>
<path d="M350 923 c0 -62 16 -64 22 -3 l3 35 28 -43 c15 -23 32 -40 37 -37 14
9 13 105 -1 105 -7 0 -10 -12 -7 -30 3 -16 1 -30 -3 -30 -5 0 -15 14 -24 30
-9 18 -23 30 -35 30 -18 0 -20 -7 -20 -57z"/>
<path d="M566 964 c-9 -25 -7 -72 4 -79 6 -3 10 1 10 9 0 20 36 21 44 1 11
-30 22 -14 24 35 l2 50 -39 0 c-26 0 -41 -5 -45 -16z m67 -8 c7 -19 -1 -26
-30 -26 -22 0 -31 19 -16 33 11 12 41 7 46 -7z"/>
<path d="M1005 970 c3 -5 14 -10 23 -10 13 0 17 -9 17 -37 0 -53 19 -57 23 -5
2 28 8 42 18 42 8 0 14 5 14 10 0 6 -23 10 -51 10 -31 0 -48 -4 -44 -10z"/>
<path d="M1280 930 c0 -27 5 -50 10 -50 6 0 10 23 10 50 0 28 -4 50 -10 50 -5
0 -10 -22 -10 -50z"/>
<path d="M1312 930 c-1 -30 2 -50 8 -50 5 0 10 16 10 35 0 45 12 44 36 -2 30
-57 44 -54 44 11 0 35 -4 56 -11 56 -7 0 -9 -11 -5 -30 3 -16 2 -30 -2 -30 -4
0 -16 14 -25 30 -29 48 -51 40 -55 -20z"/>
<path d="M1427 973 c-7 -14 5 -93 14 -93 5 0 9 8 9 18 0 14 8 19 30 20 23 0
30 -4 30 -19 0 -10 5 -19 10 -19 11 0 14 59 4 84 -3 9 -10 13 -15 10 -5 -3 -7
-10 -4 -15 4 -5 -6 -14 -20 -19 -35 -13 -35 -14 -35 15 0 23 -14 34 -23 18z"/>
<path d="M2037 928 c3 -29 6 -54 7 -55 1 -1 20 1 44 4 50 7 56 23 8 23 -33 0
-35 2 -38 37 -2 20 -8 38 -15 40 -9 3 -11 -9 -6 -49z"/>
</g>
</svg>
