<svg xmlns="http://www.w3.org/2000/svg" version="1.1" xmlns:xlink="http://www.w3.org/1999/xlink" xmlns:svgjs="http://svgjs.dev/svgjs" width="1000" height="588" viewBox="0 0 1000 588"><g transform="matrix(1,0,0,1,-0.6060606060606233,-0.21952351299609063)"><svg viewBox="0 0 396 233" data-background-color="#ffffff" preserveAspectRatio="xMidYMid meet" height="588" width="1000" xmlns="http://www.w3.org/2000/svg" xmlns:xlink="http://www.w3.org/1999/xlink"><g id="tight-bounds" transform="matrix(1,0,0,1,0.2400000000000091,0.08698805872124638)"><svg viewBox="0 0 395.52 232.8260238825575" height="232.8260238825575" width="395.52"><g><svg viewBox="0 0 395.52 232.8260238825575" height="232.8260238825575" width="395.52"><g><svg viewBox="0 0 395.52 232.8260238825575" height="232.8260238825575" width="395.52"><g id="textblocktransform"><svg viewBox="0 0 395.52 232.8260238825575" height="232.8260238825575" width="395.52" id="textblock"><g><svg viewBox="0 0 395.52 160.25191863661354" height="160.25191863661354" width="395.52"><g transform="matrix(1,0,0,1,0,0)"><svg width="395.52" viewBox="2.95 -36.25 90.94 36.85" height="160.25191863661354" data-palette-color="#ff5c3a"><path d="M7.05-36.15L11.3-36.2Q12.4-36.2 12.93-35.98 13.45-35.75 13.75-35.2L13.75-35.2Q14.25-34.15 15-32.5L15-32.5 16.85-28.5 19.2-23.35Q19.85-21.95 20.9-19.65 21.95-17.35 22.4-16.45L22.4-16.45Q23.25-14.7 23.5-14.3L23.5-14.3 24.9-11.55 26.45-8.5 26.35-11.4 26.15-16.3 26.15-17.8Q26.15-20.55 26.25-23.35L26.25-23.35Q26.25-25.45 26.2-26.75L26.2-26.75 26.15-30.55 26.35-35.35Q26.35-36.1 27.1-36.1L27.1-36.1Q27.35-36.1 28.1-35.95L28.1-35.95Q28.55-35.85 29.05-35.85 29.55-35.85 29.85-35.85L29.85-35.85Q30.25-35.85 30.38-35.75 30.5-35.65 30.5-35.4L30.5-35.4Q30.5-35.2 30.45-34.95 30.4-34.7 30.4-34.4L30.4-34.4 30.35-30.1 30.25-20 30.2-18.55Q30.2-16.85 30.25-15.45 30.3-14.05 30.35-13.15L30.35-13.15Q30.5-11 30.5-9.55L30.5-9.55Q30.5-9.75 30.65-3.6L30.65-3.6 30.75-0.8 30.75-0.7Q30.75 0.3 29.8 0.2L29.8 0.2Q29.65 0.15 29.2 0.15L29.2 0.15 27.75 0.2 27.45 0.2Q27.1 0.2 26.93 0.05 26.75-0.1 26.35-0.8L26.35-0.8Q26.2-1.15 25.95-1.8 25.7-2.45 25.35-3.25L25.35-3.25Q23.2-8.65 22.25-10.6L22.25-10.6Q21.15-12.7 16.7-22.65L16.7-22.65Q15.7-24.7 14.45-27L14.45-27 13-29.6 13.15-24.85 13.2-21.9Q13.3-18.6 13.3-17.55L13.3-17.55Q13.3-13.45 13.45-9.3L13.45-9.3 13.5-5.4Q13.5-4.35 13.6-2.35L13.6-2.35 13.7-0.6 13.7-0.5Q13.7 0 13.45 0.15 13.2 0.3 12.75 0.3L12.75 0.3 11.65 0.35Q10.6 0.5 9.4 0.5L9.4 0.5Q8 0.5 7.1 0.55L7.1 0.55 4.55 0.6Q3.8 0.6 3.55 0.33 3.3 0.05 3.25-0.3 3.2-0.65 3.15-0.8L3.15-0.8Q2.95-1.7 2.95-3L2.95-3Q2.95-4.2 3-5.05L3-5.05Q3-7.65 3.1-11.13 3.2-14.6 3.35-16.1L3.35-16.1 3.6-19.65Q4.2-27.95 4.2-29L4.2-29Q4.2-32.95 4.35-34.9L4.35-34.9Q4.45-36.25 5.75-36.25L5.75-36.25Q6.15-36.25 6.5-36.2 6.85-36.15 7.05-36.15L7.05-36.15ZM57.1-29.85Q57.1-28.85 56.95-28L56.95-28Q56.9-27.25 56.25-27.25L56.25-27.25Q56.05-27.25 55.7-27.35 55.35-27.45 55.15-27.5L55.15-27.5Q54.4-27.65 50.8-27.65L50.8-27.65 48.9-27.7Q48.25-27.75 47-27.75L47-27.75Q46.1-27.75 45.65-27.7L45.65-27.7Q44.15-27.6 43-27.6L43-27.6 40.35-27.65Q39.95-27.65 39.9-27.48 39.85-27.3 39.85-26.65L39.85-26.65Q39.85-25.75 39.8-25.1L39.8-25.1Q39.7-23.1 39.7-21.85L39.7-21.85 39.7-18.9Q39.7-17.85 39.75-17.3L39.75-17.3Q40.15-17.25 41.1-17.25L41.1-17.25Q41.95-17.2 44.6-17.2L44.6-17.2Q45.7-17.2 47.8-17.3L47.8-17.3Q49.4-17.4 49.9-17.4L49.9-17.4Q50.6-17.4 51.3-17.32 52-17.25 52.35-17.25L52.35-17.25Q53-17.25 53-16.65L53-16.65Q53-16.45 52.95-16.07 52.9-15.7 52.9-15.1L52.9-15.1 52.95-12.45Q52.95-12 52.85-11.83 52.75-11.65 52.5-11.65L52.5-11.65Q52.35-11.65 52.07-11.73 51.8-11.8 51.6-11.8L51.6-11.8Q51.15-11.8 49.92-11.85 48.7-11.9 46.6-11.9L46.6-11.9Q44.35-11.9 42.7-11.7 41.05-11.5 40.7-11.5L40.7-11.5Q40.15-11.5 40.05-11.55L40.05-11.55Q39.8-11.55 39.75-11.6L39.75-11.6 39.75-6.6Q40.1-6.6 40.3-6.65L40.3-6.65 41.7-6.7 47.6-6.75Q49.4-6.75 50.45-6.7L50.45-6.7 53.9-6.65 56-6.7Q56.6-6.7 56.8-6.43 57-6.15 57-5.65L57-5.65 56.95-4.65 56.9-1.15Q56.9-0.35 56.55-0.18 56.2 0 55.55-0.03 54.9-0.05 54.5-0.05L54.5-0.05Q52.35-0.05 50.8-0.1L50.8-0.1 45.7-0.15Q45.1-0.15 39.7 0L39.7 0 37.8 0.05 37.5 0.1Q37.2 0.1 37.15-0.08 37.1-0.25 37.1-0.75L37.1-0.75Q37.05-1.3 37.05-2.6L37.05-2.6Q37.05-3 37-3.48 36.95-3.95 36.95-4.75L36.95-4.75 36.95-11.6Q36.95-12.6 37.02-13.55 37.1-14.5 37.1-14.95L37.1-14.95Q37.3-17.25 37.3-19.35L37.3-19.35Q37.3-21.95 37.15-23.45L37.15-23.45Q37.05-25.15 37.05-26.55L37.05-26.55Q37.05-29.7 37.2-33.9L37.2-33.9Q37.2-34.55 37.45-34.77 37.7-35 38.15-35L38.15-35 38.9-34.95Q39.35-34.95 40.35-34.88 41.35-34.8 42.8-34.8L42.8-34.8Q44.45-34.8 46.7-35.05L46.7-35.05Q49.4-35.25 50.3-35.25L50.3-35.25Q52.35-35.25 54.05-35.1L54.05-35.1 55.85-35.05Q56.5-35.05 56.7-34.75 56.9-34.45 56.9-33.65L56.9-33.65Q56.9-33.2 57-32.1L57-32.1Q57.1-30.8 57.1-29.85L57.1-29.85ZM65.85-33.4Q65.7-32.3 65.6-27.75L65.6-27.75Q65.6-26.35 65.4-20.65L65.4-20.65Q65.2-15.15 65.2-13.95L65.2-13.95Q65.2-11.05 65.3-6.63 65.4-2.2 65.5-1.35L65.5-1.35Q65.55-1.05 65.55-0.65L65.55-0.65Q65.55-0.3 65.42-0.15 65.3 0 65.05 0.15L65.05 0.15Q64.75 0.35 63.5 0.35L63.5 0.35Q63.3 0.35 62.87 0.35 62.45 0.35 62.35 0.25 62.25 0.15 62.25-0.15L62.25-0.15 62.3-1.75 62.4-8.3 62.5-18.8Q62.5-20.3 62.7-25.6L62.7-25.6Q62.75-26.85 62.85-29.68 62.95-32.5 62.85-33L62.85-33 62.8-34.05Q62.8-35.35 63.6-35.35L63.6-35.35 65.45-35.3Q65.95-35.3 65.95-34.6L65.95-34.6Q65.95-34.35 65.9-34.02 65.85-33.7 65.85-33.4L65.85-33.4ZM80.39-32.5L80.29-29.8Q80.09-25.7 80.09-23.65L80.09-23.65 80.19-16.1Q80.24-14.3 80.24-12.4L80.24-12.4 80.14-6.95 80.09-5.95 80.14-4.55 80.24-2.8 87.39-2.55 93.34-2.5 93.44-2.5Q93.74-2.5 93.79-2.4 93.84-2.3 93.82-2.13 93.79-1.95 93.79-1.85L93.79-1.85Q93.74-1.65 93.82-1.1 93.89-0.55 93.89-0.1L93.89-0.1Q93.89 0.25 93.64 0.35 93.39 0.45 93.02 0.43 92.64 0.4 92.44 0.4L92.44 0.4 89.79 0.25Q86.29-0.05 84.84-0.05L84.84-0.05Q83.24-0.05 76.74 0.25L76.74 0.25 72.19 0.4Q71.09 0.4 71.09-0.6L71.09-0.6 71.09-4.5 71.29-21.25Q71.29-23.15 71.04-28.15L71.04-28.15 70.84-34.3Q70.84-35.15 71.49-35.15L71.49-35.15Q71.74-35.15 72.34-35 72.94-34.85 73.29-34.85L73.29-34.85Q74.69-34.65 76.64-34.65L76.64-34.65Q77.99-34.65 79.19-34.8L79.19-34.8Q79.94-34.9 80.24-34.7 80.54-34.5 80.54-34.05L80.54-34.05Q80.54-33.7 80.47-33.33 80.39-32.95 80.39-32.5L80.39-32.5Z" opacity="1" transform="matrix(1,0,0,1,0,0)" fill="#ff5c3a" class="undefined-text-0" data-fill-palette-color="primary" id="text-0"></path></svg></g></svg></g><g transform="matrix(1,0,0,1,0,198.0835505806707)"><svg viewBox="0 0 232.209792 34.74247330188679" height="34.74247330188679" width="232.209792"><g transform="matrix(1,0,0,1,0,0)"><svg width="232.209792" viewBox="5.25 -36.5 339.17 50.75" height="34.74247330188679" data-palette-color="#aab7c0"><path d="M5.25-0.05L5.25-34.25 7.5-34.25 7.5-0.05 5.25-0.05ZM39.7-2.2L41.25-1.1Q40.1 0.5 38.15 0.5L38.15 0.5Q36.35 0.5 35.22-0.68 34.1-1.85 34.1-3.85L34.1-3.85 34.1-16.85Q34.1-23.35 28.1-23.35L28.1-23.35Q25.6-23.35 23.52-22.08 21.45-20.8 19.3-17.9L19.3-17.9 19.3 0 17.2 0 17.2-18Q17.2-20.2 16.75-21.48 16.3-22.75 15.35-23.95L15.35-23.95 16.75-25.3Q17.85-24.25 18.52-22.88 19.2-21.5 19.3-20.05L19.3-20.05Q21-22.8 23.17-24.03 25.35-25.25 28.35-25.25L28.35-25.25Q32.1-25.25 34.15-23.35 36.2-21.45 36.2-17.9L36.2-17.9 36.2-3.8Q36.2-2.6 36.75-2 37.3-1.4 38.2-1.4L38.2-1.4Q39.05-1.4 39.7-2.2L39.7-2.2ZM65.25-3.8Q65.25-2.6 65.8-2 66.34-1.4 67.25-1.4L67.25-1.4Q68.09-1.4 68.75-2.2L68.75-2.2 70.3-1.1Q69.15 0.5 67.2 0.5L67.2 0.5Q65.4 0.5 64.27-0.68 63.15-1.85 63.15-3.85L63.15-3.85 63.15-17.4Q63.15-20.45 61.52-21.98 59.9-23.5 56.9-23.5L56.9-23.5Q54.2-23.5 52.27-22.15 50.34-20.8 48.34-18.05L48.34-18.05 48.34-0.2 46.25-0.2 46.25-36.5 48.34-36.5 48.34-20.05Q50-22.8 52.17-24.1 54.34-25.4 57.3-25.4L57.3-25.4Q61.34-25.4 63.3-23.45 65.25-21.5 65.25-17.55L65.25-17.55 65.25-3.8ZM84.44 0.45Q80.89 0.45 78.17-1.15 75.44-2.75 73.92-5.65 72.39-8.55 72.39-12.3L72.39-12.3Q72.39-16.1 73.92-19.03 75.44-21.95 78.19-23.6 80.94-25.25 84.49-25.25L84.49-25.25Q88.04-25.25 90.79-23.63 93.54-22 95.07-19.07 96.59-16.15 96.59-12.35L96.59-12.35Q96.59-8.6 95.07-5.68 93.54-2.75 90.79-1.15 88.04 0.45 84.44 0.45L84.44 0.45ZM84.49-1.45Q87.44-1.45 89.72-2.85 91.99-4.25 93.24-6.78 94.49-9.3 94.49-12.55L94.49-12.55Q94.49-15.75 93.24-18.2 91.99-20.65 89.72-22 87.44-23.35 84.49-23.35L84.49-23.35Q81.54-23.35 79.27-21.98 76.99-20.6 75.74-18.1 74.49-15.6 74.49-12.35L74.49-12.35Q74.49-9.15 75.74-6.68 76.99-4.2 79.27-2.83 81.54-1.45 84.49-1.45L84.49-1.45ZM119.29-3.8Q115.99 0.35 110.29 0.35L110.29 0.35Q106.54 0.35 104.59-1.38 102.64-3.1 102.44-6.75L102.44-6.75 102.44-18.2Q102.44-20.4 101.99-21.68 101.54-22.95 100.59-24.15L100.59-24.15 101.99-25.5Q103.14-24.35 103.84-22.88 104.54-21.4 104.54-19.85L104.54-19.85 104.54-8.05Q104.54-1.55 110.59-1.55L110.59-1.55Q113.34-1.55 115.29-2.83 117.24-4.1 119.24-6.75L119.24-6.75 119.29-25 121.39-25 121.34-3.9Q121.34-2.7 121.89-2.13 122.44-1.55 123.34-1.55L123.34-1.55Q123.79-1.55 124.27-1.8 124.74-2.05 124.94-2.4L124.94-2.4 126.54-1.4Q126.04-0.55 125.17-0.1 124.29 0.35 123.34 0.35L123.34 0.35Q121.49 0.35 120.44-0.73 119.39-1.8 119.29-3.8L119.29-3.8ZM138.04 0.55Q135.49 0.55 133.29-0.35 131.09-1.25 129.04-3.15L129.04-3.15 130.24-4.6Q133.89-1.35 138.09-1.35L138.09-1.35Q140.94-1.35 142.79-2.8 144.64-4.25 144.64-6.7L144.64-6.7Q144.64-8.25 143.84-9.25 143.04-10.25 141.66-10.95 140.29-11.65 137.49-12.8L137.49-12.8Q134.89-13.85 133.49-14.6 132.09-15.35 131.21-16.53 130.34-17.7 130.34-19.45L130.34-19.45Q130.34-22.25 132.41-23.95 134.49-25.65 137.94-25.65L137.94-25.65Q141.14-25.65 143.89-23.9L143.89-23.9 142.89-22.3Q140.44-23.75 137.99-23.75L137.99-23.75Q135.54-23.75 134.01-22.55 132.49-21.35 132.49-19.45L132.49-19.45Q132.49-18.4 133.06-17.68 133.64-16.95 134.99-16.23 136.34-15.5 139.24-14.25L139.24-14.25Q142.24-12.95 143.69-12.1 145.14-11.25 145.96-10.05 146.79-8.85 146.79-6.95L146.79-6.95Q146.79-3.5 144.39-1.48 141.99 0.55 138.04 0.55L138.04 0.55ZM162.59 0.45Q157.03 0.45 154.19-2.83 151.34-6.1 151.34-11.45L151.34-11.45Q151.34-14.9 152.53-18.05 153.74-21.2 156.24-23.23 158.74-25.25 162.38-25.25L162.38-25.25Q166.19-25.25 168.74-23.2 171.28-21.15 171.28-17.75L171.28-17.75Q171.28-14.15 168.31-12.2 165.34-10.25 160.24-10.25L160.24-10.25 153.59-10.25Q153.99-6.05 156.28-3.75 158.59-1.45 162.59-1.45L162.59-1.45Q164.84-1.45 166.71-2.1 168.59-2.75 170.59-4L170.59-4 171.63-2.55Q167.38 0.45 162.59 0.45L162.59 0.45ZM160.24-12.15Q164.24-12.15 166.71-13.5 169.19-14.85 169.19-17.8L169.19-17.8Q169.19-20.5 167.19-21.93 165.19-23.35 162.53-23.35L162.53-23.35Q159.49-23.35 157.41-21.53 155.34-19.7 154.36-17.07 153.38-14.45 153.49-12.15L153.49-12.15 160.24-12.15ZM192.93-0.05L192.93-34.25 195.03-34.25 195.03-2.05 212.83-2.05 212.83-0.05 192.93-0.05ZM226.78 0.45Q221.23 0.45 218.38-2.83 215.53-6.1 215.53-11.45L215.53-11.45Q215.53-14.9 216.73-18.05 217.93-21.2 220.43-23.23 222.93-25.25 226.58-25.25L226.58-25.25Q230.38-25.25 232.93-23.2 235.48-21.15 235.48-17.75L235.48-17.75Q235.48-14.15 232.5-12.2 229.53-10.25 224.43-10.25L224.43-10.25 217.78-10.25Q218.18-6.05 220.48-3.75 222.78-1.45 226.78-1.45L226.78-1.45Q229.03-1.45 230.9-2.1 232.78-2.75 234.78-4L234.78-4 235.83-2.55Q231.58 0.45 226.78 0.45L226.78 0.45ZM224.43-12.15Q228.43-12.15 230.9-13.5 233.38-14.85 233.38-17.8L233.38-17.8Q233.38-20.5 231.38-21.93 229.38-23.35 226.73-23.35L226.73-23.35Q223.68-23.35 221.6-21.53 219.53-19.7 218.55-17.07 217.58-14.45 217.68-12.15L217.68-12.15 224.43-12.15ZM265.02-2.4L266.63-1.4Q266.13-0.55 265.25-0.1 264.38 0.35 263.43 0.35L263.43 0.35Q261.63 0.35 260.57-0.68 259.52-1.7 259.38-3.7L259.38-3.7Q258.32-1.8 256.18-0.68 254.03 0.45 251.32 0.45L251.32 0.45Q247.88 0.45 245.5-1.28 243.13-3 241.95-5.88 240.78-8.75 240.78-12.25L240.78-12.25Q240.78-16.15 242.22-19.07 243.68-22 246.4-23.63 249.13-25.25 252.88-25.25L252.88-25.25Q254.03-25.25 255.8-25.13 257.57-25 258.93-24.8L258.93-24.8 261.43-24.8 261.43-3.9Q261.43-2.7 261.98-2.13 262.52-1.55 263.43-1.55L263.43-1.55Q263.88-1.55 264.35-1.8 264.82-2.05 265.02-2.4L265.02-2.4ZM259.32-9.3L259.32-23Q258.52-22.95 255.72-23.15L255.72-23.15 252.68-23.25Q247.93-23.25 245.4-20.15 242.88-17.05 242.88-12.35L242.88-12.35Q242.88-9.55 243.85-7.08 244.82-4.6 246.75-3.08 248.68-1.55 251.38-1.55L251.38-1.55Q253.82-1.55 255.72-2.75 257.63-3.95 258.57-5.85L258.57-5.85Q259.32-7.35 259.32-9.3L259.32-9.3ZM282.12 14.25Q279.07 14.25 277.02 12.13 274.97 10 274.97 6.75L274.97 6.75Q274.97 2.55 278.12 0.4L278.12 0.4Q275.42 0.05 273.27-1.7 271.12-3.45 269.92-6.25 268.72-9.05 268.72-12.35L268.72-12.35Q268.72-16.05 270.3-19 271.87-21.95 274.65-23.63 277.42-25.3 280.87-25.3L280.87-25.3Q282.77-25.3 283.97-25.15L283.97-25.15 287.07-24.8 289.57-24.8 289.57 6.6Q289.57 10 287.5 12.13 285.42 14.25 282.12 14.25L282.12 14.25ZM279.17-1.5Q280.42-1.5 281.8-2.08 283.17-2.65 284.37-3.65L284.37-3.65Q285.77-4.85 286.62-6.28 287.47-7.7 287.47-8.85L287.47-8.85 287.47-23.1 282.27-23.4 280.62-23.4Q277.87-23.4 275.65-21.95 273.42-20.5 272.12-17.98 270.82-15.45 270.82-12.35L270.82-12.35Q270.82-9.4 271.95-6.93 273.07-4.45 275-2.98 276.92-1.5 279.17-1.5L279.17-1.5ZM282.37 12.35Q284.62 12.35 285.95 10.75 287.27 9.15 287.47 6.2L287.47 6.2 287.47-4.7Q286.52-2.95 284.52-1.35L284.52-1.35Q283.97-0.85 282.77-0.18 281.57 0.5 281.27 0.7L281.27 0.7Q280.97 0.85 279.97 1.45L279.97 1.45Q278.37 2.55 277.67 3.78 276.97 5 276.97 6.65L276.97 6.65Q276.97 9.05 278.52 10.7 280.07 12.35 282.37 12.35L282.37 12.35ZM314.67-3.8Q311.37 0.35 305.67 0.35L305.67 0.35Q301.92 0.35 299.97-1.38 298.02-3.1 297.82-6.75L297.82-6.75 297.82-18.2Q297.82-20.4 297.37-21.68 296.92-22.95 295.97-24.15L295.97-24.15 297.37-25.5Q298.52-24.35 299.22-22.88 299.92-21.4 299.92-19.85L299.92-19.85 299.92-8.05Q299.92-1.55 305.97-1.55L305.97-1.55Q308.72-1.55 310.67-2.83 312.62-4.1 314.62-6.75L314.62-6.75 314.67-25 316.77-25 316.72-3.9Q316.72-2.7 317.27-2.13 317.82-1.55 318.72-1.55L318.72-1.55Q319.17-1.55 319.65-1.8 320.12-2.05 320.32-2.4L320.32-2.4 321.92-1.4Q321.42-0.55 320.55-0.1 319.67 0.35 318.72 0.35L318.72 0.35Q316.87 0.35 315.82-0.73 314.77-1.8 314.67-3.8L314.67-3.8ZM335.37 0.45Q329.82 0.45 326.97-2.83 324.12-6.1 324.12-11.45L324.12-11.45Q324.12-14.9 325.32-18.05 326.52-21.2 329.02-23.23 331.52-25.25 335.17-25.25L335.17-25.25Q338.97-25.25 341.52-23.2 344.07-21.15 344.07-17.75L344.07-17.75Q344.07-14.15 341.09-12.2 338.12-10.25 333.02-10.25L333.02-10.25 326.37-10.25Q326.77-6.05 329.07-3.75 331.37-1.45 335.37-1.45L335.37-1.45Q337.62-1.45 339.49-2.1 341.37-2.75 343.37-4L343.37-4 344.42-2.55Q340.17 0.45 335.37 0.45L335.37 0.45ZM333.02-12.15Q337.02-12.15 339.49-13.5 341.97-14.85 341.97-17.8L341.97-17.8Q341.97-20.5 339.97-21.93 337.97-23.35 335.32-23.35L335.32-23.35Q332.27-23.35 330.19-21.53 328.12-19.7 327.14-17.07 326.17-14.45 326.27-12.15L326.27-12.15 333.02-12.15Z" opacity="1" transform="matrix(1,0,0,1,0,0)" fill="#aab7c0" class="undefined-text-1" data-fill-palette-color="secondary" id="text-1"></path></svg></g></svg></g></svg></g></svg></g><g></g></svg></g><defs></defs></svg><rect width="395.52" height="232.8260238825575" fill="none" stroke="none" visibility="hidden"></rect></g></svg></g></svg>