<?xml version="1.0" standalone="no"?>
<!DOCTYPE svg PUBLIC "-//W3C//DTD SVG 20010904//EN"
 "http://www.w3.org/TR/2001/REC-SVG-20010904/DTD/svg10.dtd">
<svg version="1.0" xmlns="http://www.w3.org/2000/svg"
 width="1300.000000pt" height="344.000000pt" viewBox="0 0 1300.000000 344.000000"
 preserveAspectRatio="xMidYMid meet">
<metadata>
Created by potrace 1.16, written by Peter Selinger 2001-2019
</metadata>
<g transform="translate(0.000000,344.000000) scale(0.100000,-0.100000)"
fill="#000000" stroke="none">
<path d="M6435 3256 c-19 -20 -48 -44 -63 -53 -29 -19 -82 -66 -142 -125 -21
-21 -43 -38 -48 -38 -6 0 -31 -19 -56 -42 -25 -24 -71 -65 -102 -93 -31 -27
-77 -69 -103 -92 -120 -108 -139 -123 -147 -123 -5 0 -35 -25 -67 -55 -32 -30
-61 -55 -65 -55 -5 0 -44 -34 -88 -75 -110 -105 -115 -109 -149 -130 -16 -10
-43 -33 -60 -50 -16 -17 -52 -48 -80 -70 -27 -22 -77 -66 -110 -97 -32 -32
-65 -58 -72 -58 -7 0 -22 -13 -35 -30 -12 -16 -27 -30 -32 -30 -6 0 -33 -23
-61 -50 -27 -28 -53 -50 -58 -50 -4 0 -27 -20 -51 -45 -25 -25 -49 -45 -54
-45 -5 0 -25 -17 -42 -37 -18 -21 -47 -47 -64 -58 -31 -20 -40 -27 -128 -107
-26 -24 -61 -54 -79 -68 -17 -14 -45 -37 -61 -52 -16 -16 -32 -28 -37 -28 -4
0 -24 -18 -44 -40 -19 -22 -41 -40 -47 -40 -6 0 -28 -17 -49 -37 -37 -36 -114
-105 -190 -171 l-33 -29 26 -28 c14 -15 26 -34 26 -41 0 -8 4 -14 9 -14 5 0
13 -14 16 -32 4 -17 14 -38 21 -46 8 -7 14 -20 14 -28 0 -8 4 -14 9 -14 5 0
12 -8 15 -17 8 -21 23 -48 53 -89 12 -17 25 -42 28 -57 4 -15 16 -32 26 -38
11 -5 19 -17 19 -25 0 -11 6 -14 23 -8 12 3 27 10 32 15 6 4 33 15 60 24 28 9
64 23 80 30 71 29 92 38 135 52 25 8 59 21 75 28 17 7 53 21 80 31 28 9 55 21
60 24 6 4 39 17 75 29 36 12 74 25 85 30 11 5 38 16 60 26 22 9 49 20 60 25
30 14 134 51 180 64 22 7 60 22 84 34 25 12 49 22 53 22 5 0 33 11 61 24 29
14 66 28 82 31 43 10 113 34 160 56 35 15 61 27 160 69 11 4 36 15 57 24 20 9
43 16 51 16 9 0 18 4 21 9 3 5 21 12 40 15 18 4 55 18 82 31 27 14 56 25 64
25 9 0 20 4 25 9 6 5 37 17 70 27 33 10 88 30 122 46 34 15 66 28 72 28 5 0
14 8 20 17 7 13 12 14 23 6 7 -6 24 -14 38 -18 14 -4 41 -18 61 -30 19 -13 58
-30 85 -39 55 -18 106 -42 145 -68 14 -9 56 -28 93 -42 38 -14 84 -35 105 -45
52 -28 269 -131 276 -131 3 0 51 -22 108 -49 56 -27 131 -61 167 -76 36 -14
99 -44 140 -65 41 -20 116 -55 165 -76 50 -21 104 -46 120 -55 41 -24 116 -59
126 -59 5 0 45 -18 89 -40 44 -22 86 -40 94 -40 7 0 19 -6 25 -14 6 -7 33 -21
59 -31 62 -23 183 -83 204 -102 22 -20 36 -10 44 32 3 20 10 38 15 41 5 3 9
12 9 21 0 8 6 29 14 46 7 18 21 55 31 82 9 28 23 64 30 80 7 17 21 55 31 85 9
30 20 60 24 65 4 6 15 35 24 65 17 57 22 68 50 133 9 21 16 44 16 51 0 13
-110 116 -123 116 -4 0 -26 19 -50 43 -24 23 -64 55 -88 72 -24 16 -58 44 -74
62 -17 18 -35 33 -41 33 -6 0 -22 10 -36 23 -40 36 -82 67 -90 67 -4 0 -20 12
-37 28 -73 69 -111 102 -117 102 -3 0 -33 25 -67 55 -33 30 -64 55 -68 55 -4
0 -20 12 -36 28 -16 15 -48 43 -72 62 -23 19 -55 45 -69 58 -42 36 -51 42 -57
42 -2 0 -15 9 -27 19 -73 61 -119 99 -144 119 -16 12 -43 33 -60 47 -18 14
-36 25 -40 25 -4 0 -27 19 -50 43 -51 52 -84 77 -101 77 -7 0 -18 11 -24 23
-6 13 -25 32 -42 42 -18 10 -38 26 -44 36 -7 10 -30 28 -50 40 -21 13 -46 34
-56 46 -10 13 -24 23 -32 23 -7 0 -15 7 -19 15 -3 8 -12 15 -19 15 -8 0 -32
18 -53 40 -22 22 -43 40 -47 40 -4 0 -18 11 -31 25 -13 14 -27 25 -30 25 -8 0
-73 53 -144 118 -25 23 -53 44 -62 47 -8 3 -44 32 -79 65 -35 33 -69 60 -75
60 -10 0 -67 46 -111 90 -11 11 -35 22 -52 26 -27 5 -37 1 -68 -30z m71 -577
c19 -7 22 -18 29 -113 5 -76 11 -106 20 -106 7 0 40 25 74 55 84 75 94 79 136
60 48 -23 96 -71 89 -90 -4 -8 -10 -15 -16 -15 -5 0 -7 -4 -4 -9 4 -5 -7 -20
-23 -33 -15 -13 -37 -37 -47 -54 -10 -16 -36 -47 -56 -68 -21 -22 -38 -42 -38
-46 0 -9 100 -124 111 -128 5 -2 9 -8 9 -14 0 -6 16 -30 35 -54 30 -37 34 -47
25 -64 -6 -11 -14 -20 -19 -20 -4 0 -24 -11 -44 -24 l-36 -25 -40 30 c-23 16
-43 29 -47 29 -3 0 -20 11 -38 25 -18 14 -36 25 -40 25 -5 0 -5 -26 -1 -57 7
-64 -6 -138 -28 -160 -13 -13 -23 -12 -78 7 -71 25 -81 32 -85 57 -10 61 -24
126 -29 131 -12 12 -81 -35 -140 -95 -35 -36 -40 -35 -141 54 -41 35 -38 55
16 126 28 37 59 71 69 76 40 22 32 47 -35 108 -88 81 -94 99 -55 163 17 28 31
54 31 59 0 4 9 16 20 26 19 17 21 16 68 -17 43 -32 137 -88 146 -88 2 0 6 24
10 53 3 28 11 82 18 119 10 60 14 69 42 82 29 15 43 14 92 -5z m1668 -888 c48
-18 50 -20 66 -80 10 -34 20 -64 22 -67 3 -3 24 5 46 16 45 23 70 21 111 -11
13 -11 29 -19 36 -19 18 0 27 -28 16 -48 -5 -9 -20 -27 -33 -38 -12 -12 -47
-47 -76 -78 -29 -31 -58 -56 -63 -56 -24 0 -2 -36 76 -123 43 -48 54 -71 48
-100 -3 -17 -15 -33 -29 -39 -13 -6 -24 -15 -24 -20 0 -4 -6 -8 -14 -8 -8 0
-22 -8 -32 -17 -16 -16 -18 -16 -33 7 -9 14 -24 33 -33 42 -10 10 -18 22 -18
26 0 15 -40 56 -47 49 -3 -4 -8 -21 -10 -38 -8 -78 -60 -116 -119 -88 -27 13
-29 19 -38 99 -4 47 -10 87 -12 89 -2 2 -9 -1 -16 -6 -17 -13 -106 -49 -140
-57 -20 -4 -33 0 -51 16 -26 26 -57 69 -57 80 0 10 89 98 99 98 5 0 16 12 26
26 15 24 15 28 -2 70 -10 24 -21 44 -25 44 -5 0 -8 5 -8 12 0 6 -7 19 -15 27
-12 15 -10 22 18 66 40 63 75 95 93 88 8 -3 14 -8 14 -12 0 -14 92 -101 105
-101 14 0 19 12 30 70 6 30 32 100 38 100 1 0 24 -8 51 -19z m-3179 -43 c14
-6 25 -16 25 -21 0 -6 7 -18 15 -27 13 -14 13 -22 4 -46 -7 -16 -11 -33 -10
-37 1 -5 -4 -26 -10 -48 -12 -39 -12 -40 27 -75 21 -19 56 -51 77 -70 20 -19
41 -34 46 -34 19 0 29 -46 16 -77 -21 -50 -40 -54 -103 -21 -71 37 -84 27 -54
-43 20 -49 20 -52 4 -75 -35 -48 -80 -39 -127 25 -30 40 -45 51 -45 31 0 -6
-13 -24 -30 -40 -16 -16 -30 -34 -30 -39 0 -5 -10 -17 -22 -25 -16 -11 -26
-12 -40 -5 -34 18 -78 73 -72 89 4 8 12 41 18 72 11 51 11 58 -6 72 -10 9 -24
16 -32 16 -7 0 -19 7 -26 15 -7 8 -20 15 -30 15 -44 0 -66 148 -24 164 8 3 33
-2 54 -10 32 -13 43 -14 55 -4 20 16 19 28 -4 73 l-19 37 25 20 c14 11 32 20
40 20 7 0 25 8 40 17 24 16 26 16 40 -3 35 -49 69 -84 80 -84 6 0 14 13 18 29
3 16 13 35 21 42 8 6 14 17 14 23 0 13 20 36 32 36 4 0 19 -5 33 -12z"/>
<path d="M6420 1110 c-36 -4 -189 -11 -340 -14 -264 -7 -344 -16 -385 -46 -5
-4 -41 -15 -80 -25 -38 -10 -83 -25 -99 -33 -30 -15 -44 -20 -281 -100 -203
-69 -253 -88 -282 -108 -23 -14 -25 -20 -19 -62 3 -25 10 -49 14 -54 4 -4 151
-12 327 -17 176 -6 349 -13 385 -16 36 -3 205 -10 375 -15 171 -5 407 -14 525
-19 118 -6 379 -15 580 -21 412 -13 798 -29 850 -36 19 -2 41 -1 48 4 17 12
26 71 18 125 -6 37 -12 47 -39 60 -18 8 -59 29 -92 45 -127 63 -151 75 -180
87 -49 20 -230 109 -235 116 -3 4 -29 15 -57 25 -29 10 -53 22 -53 26 0 5 -6
8 -14 8 -8 0 -36 11 -63 24 -46 23 -63 24 -388 36 -187 6 -365 13 -395 15 -30
2 -84 0 -120 -5z m370 -130 c0 -10 -5 -22 -11 -26 -6 -3 -8 -17 -5 -29 3 -13
1 -36 -5 -52 -6 -15 -12 -47 -14 -70 -2 -24 -6 -51 -10 -62 -13 -41 -139 -59
-227 -31 -40 12 -48 19 -54 45 -10 44 -41 141 -53 164 -26 47 18 63 217 82 64
6 119 12 121 14 9 10 41 -17 41 -35z m-1006 -40 c98 -15 101 -18 63 -98 -17
-37 -34 -69 -39 -70 -4 -2 -6 -7 -3 -12 18 -30 -89 -79 -139 -64 -25 8 -96 80
-96 99 0 7 -9 34 -21 60 -25 57 -20 64 58 81 73 16 92 16 177 4z m1592 -20
c145 -14 170 -23 184 -64 7 -22 7 -42 1 -59 -5 -14 -7 -27 -5 -30 6 -6 -26
-116 -38 -133 -12 -17 -126 -27 -203 -19 -78 9 -88 22 -100 123 -4 35 -13 86
-20 114 -13 48 -13 51 11 74 19 19 28 23 42 15 10 -6 68 -15 128 -21z"/>
<path d="M3990 785 c0 -8 -4 -15 -10 -15 -5 0 -10 -5 -10 -12 0 -18 -82 -149
-97 -155 -7 -3 -13 -13 -13 -22 0 -16 -56 -129 -69 -141 -3 -3 -14 -20 -25
-39 l-18 -33 26 -27 27 -26 35 40 c33 38 61 77 152 211 23 34 49 67 57 74 8 7
15 17 15 23 0 6 9 20 20 32 l20 21 -35 33 c-19 18 -35 37 -35 42 0 5 -9 9 -20
9 -11 0 -20 -7 -20 -15z"/>
<path d="M8867 662 c-27 -29 -27 -29 -7 -47 11 -10 20 -23 20 -29 0 -6 11 -20
25 -30 14 -10 25 -25 25 -32 0 -8 4 -14 9 -14 5 0 13 -9 16 -21 7 -22 37 -61
68 -88 9 -8 17 -19 17 -24 0 -18 80 -121 97 -124 38 -8 12 56 -77 190 -77 116
-79 119 -91 150 -6 15 -15 27 -20 27 -5 0 -9 6 -9 13 0 8 -10 23 -23 35 l-23
22 -27 -28z"/>
<path d="M4258 589 c-10 -10 -18 -23 -18 -27 0 -5 -9 -20 -20 -33 -12 -12 -31
-39 -43 -59 -12 -19 -31 -43 -44 -53 -12 -10 -25 -28 -29 -40 -7 -24 -78 -125
-102 -144 -22 -18 -7 -46 20 -38 21 6 137 121 138 137 0 4 14 22 30 40 17 18
30 36 30 39 0 4 12 21 28 38 93 102 98 113 62 144 -25 21 -30 20 -52 -4z"/>
<path d="M8652 467 c-19 -12 -33 -26 -33 -30 0 -8 94 -116 207 -236 34 -37 75
-82 92 -100 l29 -35 28 18 28 18 -25 23 c-14 13 -36 40 -49 61 -13 21 -31 46
-40 55 -9 9 -27 35 -39 58 -13 22 -27 41 -31 41 -4 0 -22 24 -40 53 -43 66
-70 97 -83 96 -6 0 -26 -10 -44 -22z"/>
</g>
</svg>
